<svg width="16" height="16" viewBox="0 0 16 16" fill="none" xmlns="http://www.w3.org/2000/svg">
<path d="M15.74 0.259984C15.4346 -0.0453608 14.9396 -0.0453608 14.6342 0.259984L7.99997 6.89425L1.3657 0.259984C1.06036 -0.0453608 0.565298 -0.0453608 0.259953 0.259984C-0.0453913 0.565328 -0.0453913 1.06039 0.259953 1.36573L6.89422 8L0.259953 14.6343C-0.0453913 14.9396 -0.0453913 15.4347 0.259953 15.74C0.565298 16.0454 1.06036 16.0454 1.3657 15.74L7.99997 9.10575L14.6342 15.74C14.9396 16.0454 15.4346 16.0454 15.74 15.74C16.0453 15.4347 16.0453 14.9396 15.74 14.6343L9.10572 8L15.74 1.36573C16.0453 1.06039 16.0453 0.565328 15.74 0.259984Z" fill="white" fill-opacity="0.4"/>
</svg>
